<svg xmlns="http://www.w3.org/2000/svg" style="display: none;"><symbol id="calidad-premium" viewBox="0 0 32 32"><title>calidad-premium</title><circle cx="16" cy="16" r="14" fill="#8e6d45" data-name="Layer 1" opacity="1" data-original="#e6e7e8"/><g data-name="Layer 2"> <path d="m9.256 18.55-.935-6.077a.507.507 0 0 1 .8-.483l2.913 2.185a.7.7 0 0 0 1-.171l2.425-3.638a.648.648 0 0 1 1.078 0L18.964 14a.7.7 0 0 0 1 .171l2.913-2.185a.507.507 0 0 1 .8.483l-.935 6.077zM9.256 19.674h13.488v1.3a.949.949 0 0 1-.949.949h-11.59a.949.949 0 0 1-.949-.949v-1.3z" fill="#ffffff" opacity="1" data-original="#000000" class=""/> </g></symbol><symbol id="configuraciones" viewBox="0 0 32 32"><title>configuraciones</title><circle cx="16" cy="16" r="14" fill="#8e6d45" data-name="Layer 1" opacity="1" data-original="#e6e7e8"/><path fill="#ffffff" d="m23.2 14.473-.891-.12a.3.3 0 0 1-.248-.213 6.642 6.642 0 0 0-.458-1.11.284.284 0 0 1 .025-.323l.492-.652c.145-.189.135-.358.025-.467l-.86-.856-.871-.875a.3.3 0 0 0-.4-.025l-.711.542a.292.292 0 0 1-.328.025 6.642 6.642 0 0 0-1.11-.458.3.3 0 0 1-.213-.248l-.12-.891a.306.306 0 0 0-.3-.264h-2.456a.306.306 0 0 0-.3.264l-.12.891a.3.3 0 0 1-.213.248 6.642 6.642 0 0 0-1.11.458.284.284 0 0 1-.323-.025l-.652-.492c-.189-.145-.358-.135-.467-.025l-1.734 1.731a.3.3 0 0 0-.025.4l.542.711a.292.292 0 0 1 .025.328 6.642 6.642 0 0 0-.458 1.11.3.3 0 0 1-.248.213l-.891.12a.306.306 0 0 0-.264.3v2.448a.306.306 0 0 0 .264.3l.891.12a.3.3 0 0 1 .248.213 6.642 6.642 0 0 0 .458 1.11.284.284 0 0 1-.025.323l-.492.652c-.145.189-.135.358-.025.467l1.731 1.731a.3.3 0 0 0 .4.025l.711-.542a.292.292 0 0 1 .328-.025 6.642 6.642 0 0 0 1.11.458.3.3 0 0 1 .213.248l.12.891a.306.306 0 0 0 .3.264h2.448a.306.306 0 0 0 .3-.264l.12-.891a.3.3 0 0 1 .213-.248 6.642 6.642 0 0 0 1.11-.458.284.284 0 0 1 .323.025l.652.492c.189.145.358.135.467.025l.856-.86.875-.871a.3.3 0 0 0 .025-.4l-.542-.711a.292.292 0 0 1-.025-.328 6.642 6.642 0 0 0 .458-1.11.3.3 0 0 1 .248-.213l.891-.12a.306.306 0 0 0 .264-.3v-2.445a.306.306 0 0 0-.253-.303zM16 18.487A2.487 2.487 0 1 1 18.487 16 2.488 2.488 0 0 1 16 18.487z" data-name="Layer 2" opacity="1" data-original="#231f20" class=""/></symbol><symbol id="desconectar" viewBox="0 0 32 32"><title>desconectar</title><circle cx="16" cy="16" r="14" fill="#8e6d45" data-name="Layer 1" opacity="1" data-original="#e6e7e8" class=""/><g fill="#231f20" data-name="Layer 2"> <path d="M22.681 8.105H9.319a1.215 1.215 0 0 0-1.214 1.214v13.362A1.215 1.215 0 0 0 9.319 23.9h13.362a1.215 1.215 0 0 0 1.219-1.219v-3.644a1.215 1.215 0 1 0-2.429 0v2.429H10.534V10.534h10.932v2.429a1.215 1.215 0 1 0 2.429 0V9.319a1.215 1.215 0 0 0-1.214-1.214z" fill="#ffffff" opacity="1" data-original="#231f20" class=""/> <path d="M16.963 19.288a1.221 1.221 0 0 0 1.718 0l2.429-2.429a1.214 1.214 0 0 0 0-1.718l-2.429-2.429a1.214 1.214 0 0 0-1.718 1.717l.356.356h-4.356a1.215 1.215 0 0 0 0 2.43h4.356l-.356.356a1.22 1.22 0 0 0 0 1.717z" fill="#ffffff" opacity="1" data-original="#231f20" class=""/> </g></symbol><symbol id="pilates" viewBox="0 0 512 512"><title>pilates</title><path d="M256 30a226.06 226.06 0 0 1 88 434.25 226.06 226.06 0 0 1-176-416.5A224.5 224.5 0 0 1 256 30m0-30C114.62 0 0 114.61 0 256s114.62 256 256 256 256-114.61 256-256S397.38 0 256 0z" fill="#8e6d45" opacity="1" data-original="#000000"/><path d="M382.05 189.59a42.76 42.76 0 0 0 4.89-3.06 42.22 42.22 0 1 0-45.69 2.54A45 45 0 0 0 322 207.26l24-.76h1.23c10.26 0 19.66 4.13 25.15 11.05a20.21 20.21 0 0 1 4.09 17.45c-2.63 11.3-15 19.51-29.31 19.51h-1.51L309 253l-12.5 49.93L210.15 249l-4.92-.2c-19.73 0-36-11.78-38.47-26.89l-52.43-32.73a32.16 32.16 0 0 0 3.33 46.37l191.18 158.1a35.39 35.39 0 0 0 50.16-5.12 35.94 35.94 0 0 0 4.27-6.8 44.65 44.65 0 0 0 10.9-19.89l30.47-121.67a44.88 44.88 0 0 0-22.59-50.58z" fill="#8e6d45" opacity="1" data-original="#000000"/><path d="M370.63 233.59c2.64-11.32-9.27-21.57-24.49-21.09L172.43 218c0 13.72 14.74 24.83 32.92 24.83l140.54 5.6c12 .48 22.65-5.89 24.74-14.84z" fill="#8e6d45" opacity="1" data-original="#000000"/></symbol><symbol id="men-abierto" viewBox="0 0 512 512"><title>men-abierto</title><path d="M256 39a217.06 217.06 0 0 1 84.45 417 217.06 217.06 0 0 1-168.9-400A215.48 215.48 0 0 1 256 39m0-39C114.62 0 0 114.62 0 256s114.62 256 256 256 256-114.62 256-256S397.38 0 256 0z" fill="#8e6d45" opacity="1" data-original="#000000" class=""/><rect width="280" height="39.69" x="116" y="135.87" rx="19.85" fill="#8e6d45" opacity="1" data-original="#000000" class=""/><rect width="280" height="39.69" x="116" y="236.15" rx="19.85" fill="#8e6d45" opacity="1" data-original="#000000" class=""/><rect width="280" height="39.69" x="116" y="336.44" rx="19.85" fill="#8e6d45" opacity="1" data-original="#000000" class=""/></symbol><symbol id="pelota-de-pilates" viewBox="0 0 60 60"><title>pelota-de-pilates</title><path d="M25.03 34.98c-7.51-7.51-11.39-16.7-10.23-23.54a24.061 24.061 0 0 0-5.24 6c-2.19 5.81 1.84 15.63 9.61 23.4 7.72 7.72 17.51 11.76 23.33 9.64a24.4 24.4 0 0 0 6.07-5.29c-.81.14-1.64.22-2.51.22-6.47 0-14.41-3.8-21.03-10.43zM51.98 22.95c-8.82 0-15.99-7.17-15.99-15.97 0-.08.01-.15.01-.22-1.92-.5-3.93-.76-6-.76-1.38 0-2.73.12-4.04.35-.26 6.63 2.82 13.8 8.36 19.34 5.53 5.53 12.7 8.61 19.33 8.35.23-1.32.35-2.66.35-4.04 0-2.47-.37-4.85-1.07-7.09-.34.02-.66.04-.95.04z" fill="#8e6d45" opacity="1" data-original="#000000" class=""/><path d="M7.09 22.85C6.38 25.11 6 27.51 6 30c0 13.23 10.77 24 24 24 2.48 0 4.88-.38 7.13-1.08-6.03-.69-13.25-4.54-19.38-10.67-6.14-6.15-9.99-13.37-10.66-19.4zM51.98 20.95c.07 0 .16-.01.24-.01A24.121 24.121 0 0 0 38.01 7.38c.22 7.52 6.39 13.57 13.97 13.57zM32.91 27.1c-5.79-5.78-9.08-13.29-8.97-20.32-2.34.61-4.53 1.56-6.53 2.8-2.55 6.14 1.2 16.15 9.03 23.99 7.84 7.83 17.86 11.58 23.98 9.02 1.24-2 2.2-4.2 2.81-6.54-.12 0-.23.01-.35.01-6.93 0-14.28-3.27-19.97-8.96z" fill="#8e6d45" opacity="1" data-original="#000000" class=""/></symbol><symbol id="pilates-1" viewBox="0 0 32 32"><title>pilates-1</title><path d="M20.5 7a3.5 3.5 0 1 1-7 0 3.5 3.5 0 0 1 7 0zM24 23H13.493l3.518-8.549 6.638 2.485a.999.999 0 1 0 .701-1.873l-10.362-3.88a2.844 2.844 0 0 0-3.609 1.554l-3.085 7.722C6.373 22.608 7.952 25 10.289 25H24a1 1 0 1 0 0-2zM29 29H3a1 1 0 1 1 0-2h26a1 1 0 1 1 0 2z" fill="#8e6d45" opacity="1" data-original="#000000"/></symbol><symbol id="flecha-recta" viewBox="0 0 512 512"><title>flecha-recta</title><path d="m512 256-143.542-82.874v60.595H0v44.558h368.458v60.595z" fill="#8e6d45" opacity="1" data-original="#000000"/></symbol></svg>